<?xml version="1.0" standalone="no"?>
<!DOCTYPE svg PUBLIC "-//W3C//DTD SVG 20010904//EN"
 "http://www.w3.org/TR/2001/REC-SVG-20010904/DTD/svg10.dtd">
<svg version="1.0" xmlns="http://www.w3.org/2000/svg"
 width="300.000000pt" height="300.000000pt" viewBox="0 0 300.000000 300.000000"
 preserveAspectRatio="xMidYMid meet">
<metadata>
Created by potrace 1.10, written by Peter Selinger 2001-2011
</metadata>
<g transform="translate(0.000000,300.000000) scale(0.100000,-0.100000)"
fill="#000000" stroke="none">
<path d="M2375 2367 c-10 -21 -14 -22 -167 -20 -96 1 -158 -2 -158 -7 0 -12
19 -14 141 -10 53 1 111 -1 128 -5 l32 -7 -6 -116 c-4 -65 -9 -120 -12 -125
-2 -4 -4 -39 -4 -77 0 -76 -13 -93 -24 -32 -3 20 -24 73 -45 118 -30 62 -54
95 -103 140 -119 112 -229 141 -486 130 -75 -4 -189 -8 -254 -10 -125 -3 -173
-15 -66 -17 144 -2 169 -4 169 -16 0 -6 -9 -49 -20 -95 -12 -46 -23 -92 -25
-102 -14 -63 -41 -176 -66 -276 -15 -63 -38 -155 -49 -205 -21 -87 -33 -115
-45 -103 -4 3 15 91 40 194 26 104 48 198 50 208 9 39 38 163 62 260 21 88 24
120 8 104 -3 -3 -12 -32 -20 -64 -62 -255 -117 -487 -139 -584 -15 -63 -31
-128 -36 -145 -8 -27 -27 -105 -90 -370 -10 -44 -33 -138 -50 -210 -45 -184
-47 -220 -20 -283 22 -51 45 -80 56 -69 3 3 -1 16 -9 29 -9 12 -19 40 -22 60
-4 21 -10 38 -14 38 -15 0 -9 58 19 178 17 70 35 143 40 162 10 33 45 182 75
320 27 121 39 153 59 156 31 4 42 25 60 104 22 96 88 372 135 565 l36 150 155
2 c183 2 268 -13 350 -62 67 -41 118 -93 158 -161 36 -61 82 -194 82 -235 0
-22 5 -29 19 -29 16 0 20 10 26 63 5 34 9 71 10 82 2 11 6 74 10 140 3 66 11
149 16 184 11 69 9 82 -6 48z"/>
<path d="M1040 2366 c0 -10 9 -16 25 -16 36 0 36 0 78 -21 22 -12 35 -24 31
-31 -4 -6 -3 -8 4 -4 5 3 13 0 15 -6 4 -9 6 -8 6 3 1 24 -39 56 -87 69 -24 6
-50 14 -58 17 -8 3 -14 -1 -14 -11z"/>
<path d="M2186 2248 c28 -29 65 -77 84 -105 18 -29 36 -53 39 -53 3 0 7 37 8
82 1 44 5 84 10 87 4 3 9 14 11 24 2 13 -2 18 -15 15 -15 -3 -19 -15 -21 -71
-3 -74 -20 -89 -42 -37 -13 32 -92 110 -111 110 -7 0 10 -24 37 -52z"/>
<path d="M1208 2263 c-2 -5 -1 -30 2 -58 4 -39 7 -45 13 -28 14 39 0 120 -15
86z"/>
<path d="M1262 2240 c2 -14 -2 -29 -9 -35 -6 -5 -14 -27 -17 -49 -4 -21 -26
-120 -50 -220 -25 -99 -56 -230 -71 -291 -14 -60 -41 -171 -60 -245 -18 -74
-36 -146 -38 -160 -3 -14 -10 -43 -16 -65 -6 -22 -27 -107 -46 -190 -62 -262
-67 -279 -86 -316 -10 -20 -30 -50 -44 -68 -37 -43 -10 -39 31 5 39 44 74 137
109 289 14 61 29 126 34 145 6 19 22 85 36 145 27 111 54 223 100 415 14 58
28 116 31 130 3 14 12 51 20 83 8 32 19 77 24 100 5 23 21 92 35 152 38 157
38 161 26 182 -10 16 -11 15 -9 -7z"/>
<path d="M1985 1830 c-3 -6 1 -7 9 -4 18 7 20 1 7 -24 -6 -9 -17 -41 -26 -70
-25 -80 -137 -175 -248 -210 -45 -14 -48 -17 -25 -20 39 -5 145 49 201 101 26
24 47 37 47 30 0 -8 -12 -65 -26 -126 -14 -62 -28 -125 -31 -142 -3 -16 -7
-37 -8 -45 -2 -8 -4 -21 -4 -27 -2 -24 -21 -13 -21 11 0 30 -54 103 -99 133
-62 42 -129 54 -288 51 l-148 -3 -18 -70 c-74 -294 -164 -698 -160 -714 3 -11
11 -22 19 -25 10 -4 12 2 8 22 -3 16 10 91 31 177 43 178 40 162 59 250 8 39
20 86 26 105 6 19 13 49 16 65 12 74 42 168 55 175 26 13 291 -6 334 -25 98
-42 144 -106 153 -212 3 -44 9 -63 18 -63 8 0 14 3 14 8 1 10 14 71 44 207 15
66 33 152 42 190 8 39 22 99 30 135 9 36 17 72 19 80 2 8 6 23 10 33 5 13 2
17 -13 17 -12 0 -24 -4 -27 -10z"/>
<path d="M1881 1523 c-5 -21 -13 -50 -16 -65 l-7 -28 -36 30 c-60 49 -68 34
-10 -19 34 -31 55 -45 59 -38 4 7 12 39 19 72 7 33 15 65 17 72 3 7 0 13 -6
13 -5 0 -15 -17 -20 -37z"/>
<path d="M875 590 c-4 -6 38 -10 119 -10 77 0 126 4 126 10 0 6 -46 10 -119
10 -69 0 -122 -4 -126 -10z"/>
<path d="M709 537 c-30 -4 -66 -6 -81 -3 -19 4 -26 2 -22 -7 5 -15 755 -18
766 -2 10 14 -1 25 -25 24 -21 0 -21 -1 -2 -10 14 -6 -2 -7 -50 -4 -113 10
-527 11 -586 2z"/>
</g>
</svg>
